<svg width="18" height="27" viewBox="0 0 18 27" fill="none" xmlns="http://www.w3.org/2000/svg">
<path d="M2.03516 26.0859C1.00391 26.0859 0.335938 25.3594 0.335938 24.2109V3.69141C0.335938 1.30078 1.625 0 3.99219 0H13.4375C15.8047 0 17.0938 1.30078 17.0938 3.69141V24.2109C17.0938 25.3594 16.4375 26.0859 15.3945 26.0859C14.7031 26.0859 14.2812 25.7461 13.2969 24.7969L8.82031 20.3438C8.76172 20.2969 8.66797 20.2969 8.60938 20.3438L4.13281 24.7969C3.16016 25.7461 2.71484 26.0859 2.03516 26.0859ZM3.26562 21.7969L7.83594 17.3555C8.41016 16.8047 9.01953 16.8047 9.59375 17.3555L14.1641 21.7969C14.3281 21.9375 14.5039 21.8906 14.5039 21.668V3.90234C14.5039 3.02344 14.0703 2.60156 13.1914 2.60156H4.23828C3.35938 2.60156 2.92578 3.02344 2.92578 3.90234V21.668C2.92578 21.8906 3.11328 21.9375 3.26562 21.7969Z" fill="#F5F7FA"/>
</svg>
