<svg width="28" height="27" viewBox="0 0 28 27" fill="none" xmlns="http://www.w3.org/2000/svg">
<path d="M5.73828 26.1133C4.35547 26.1133 3.85156 24.8828 4.58984 23.8984C5.09375 23.2305 5.99609 21.918 6.5 20.957C2.83203 19.1758 0.429688 15.7305 0.429688 11.8867C0.429688 5.83984 6.46484 0.976562 14 0.976562C21.5352 0.976562 27.5703 5.83984 27.5703 11.8867C27.5703 18.1445 21.3945 22.9258 13.1328 22.7734C10.6602 24.5312 7.36719 26.1133 5.73828 26.1133ZM7.13281 23.7344C8.1875 23.3125 10.2852 21.9883 11.6914 20.9453C12.1602 20.582 12.5352 20.4297 13.0391 20.4297C13.4609 20.4414 13.7773 20.4531 14 20.4531C20.2461 20.4531 25.2148 16.6094 25.2148 11.8867C25.2148 7.16406 20.2461 3.32031 14 3.32031C7.75391 3.32031 2.78516 7.16406 2.78516 11.8867C2.78516 14.957 4.85938 17.6289 8.43359 19.3164C9.18359 19.668 9.3125 20.2305 8.96094 20.875C8.52734 21.6836 7.63672 22.8438 7.03906 23.5938C6.94531 23.7109 7.00391 23.793 7.13281 23.7344ZM8.50391 13.7383C7.53125 13.7383 6.74609 12.9531 6.74609 11.9805C6.74609 11.0078 7.53125 10.2227 8.50391 10.2227C9.46484 10.2227 10.2617 11.0078 10.2617 11.9805C10.2617 12.9531 9.46484 13.7383 8.50391 13.7383ZM14 13.7383C13.0273 13.7383 12.2422 12.9531 12.2422 11.9805C12.2422 11.0078 13.0273 10.2227 14 10.2227C14.9727 10.2227 15.7578 11.0078 15.7578 11.9805C15.7578 12.9531 14.9727 13.7383 14 13.7383ZM19.4961 13.7383C18.5234 13.7383 17.7383 12.9531 17.7383 11.9805C17.7383 11.0078 18.5234 10.2227 19.4961 10.2227C20.4688 10.2227 21.2539 11.0078 21.2539 11.9805C21.2539 12.9531 20.4688 13.7383 19.4961 13.7383Z" fill="white"/>
</svg>
