<svg width="20" height="20" viewBox="0 0 20 20" fill="none" xmlns="http://www.w3.org/2000/svg">
<path fill-rule="evenodd" clip-rule="evenodd" d="M9.58765 0.219625C9.64805 0.218506 9.70857 0.217944 9.76923 0.217944C15.0182 0.217944 19.2885 4.42535 19.2885 9.63406C19.2885 14.8428 15.0182 19.0502 9.76923 19.0502C4.52029 19.0502 0.25 14.8428 0.25 9.63406C0.25 4.56877 4.28836 0.450407 9.33793 0.227447L9.47059 0.160889L9.58765 0.219625ZM12.1747 2.39184C13.2439 3.73303 14.2847 5.7879 14.4369 8.75H17.739C17.3706 5.48072 14.9833 2.80535 11.8274 1.98088C11.9425 2.10937 12.0586 2.24626 12.1747 2.39184ZM6.88633 2.2446C6.84641 2.29266 6.80645 2.34173 6.7665 2.39184C5.69726 3.73303 4.65645 5.7879 4.50432 8.75H1.79951C2.13506 5.77215 4.14559 3.28705 6.88633 2.2446ZM1.77395 10.25C2.02527 13.4701 4.23044 16.1574 7.22863 17.1449C7.07624 16.981 6.92128 16.8023 6.7665 16.6082C5.69726 15.267 4.65645 13.2121 4.50432 10.25H1.77395ZM11.5007 17.3653C11.7199 17.1448 11.9475 16.8931 12.1747 16.6082C13.2439 15.267 14.2847 13.2121 14.4369 10.25H17.7645C17.4911 13.7534 14.9048 16.6263 11.5007 17.3653ZM11.0018 3.3269C11.8799 4.42834 12.7858 6.1632 12.9346 8.75H6.00654C6.15536 6.1632 7.06129 4.42834 7.93938 3.3269C8.42337 2.71982 8.90495 2.29797 9.25982 2.03089C9.33656 1.97313 9.40725 1.92271 9.47059 1.87932C9.53393 1.92271 9.60462 1.97313 9.68136 2.03089C10.0362 2.29797 10.5178 2.71982 11.0018 3.3269ZM7.93938 15.6731C7.06129 14.5717 6.15536 12.8368 6.00654 10.25H12.9346C12.7858 12.8368 11.8799 14.5717 11.0018 15.6731C10.5178 16.2802 10.0362 16.702 9.68136 16.9691C9.60462 17.0269 9.53393 17.0773 9.47059 17.1207C9.40725 17.0773 9.33656 17.0269 9.25982 16.9691C8.90495 16.702 8.42337 16.2802 7.93938 15.6731Z" fill="#FB8A00"/>
</svg>
