<svg width="18" height="22" viewBox="0 0 18 22" fill="none" xmlns="http://www.w3.org/2000/svg">
<path fill-rule="evenodd" clip-rule="evenodd" d="M1.5 0.445312C0.67157 0.445312 0 1.11688 0 1.94531C0 2.77374 0.67157 3.44531 1.5 3.44531H16.5C17.3284 3.44531 18 2.77374 18 1.94531C18 1.11688 17.3284 0.445312 16.5 0.445312H1.5ZM0 20.7649C0 21.1872 0.243591 21.4453 0.569641 21.4453C0.734528 21.4453 0.880707 21.3867 1.06808 21.2733L5.51654 18.5828C5.8501 18.3833 6 18.2151 6 17.9453C6 17.6794 5.8501 17.5112 5.51654 17.3079L1.06808 14.6174C0.880707 14.504 0.734528 14.4453 0.569641 14.4453C0.243591 14.4453 0 14.7073 0 15.1257V20.7649ZM0 9.94531C0 9.11688 0.67157 8.44531 1.5 8.44531H16.5C17.3284 8.44531 18 9.11688 18 9.94531C18 10.7737 17.3284 11.4453 16.5 11.4453H1.5C0.67157 11.4453 0 10.7737 0 9.94531ZM9.5 16.4453C8.67157 16.4453 8 17.1169 8 17.9453C8 18.7737 8.67157 19.4453 9.5 19.4453H16.5C17.3284 19.4453 18 18.7737 18 17.9453C18 17.1169 17.3284 16.4453 16.5 16.4453H9.5Z" fill="#F5F7FA"/>
</svg>
