<svg width="25" height="28" viewBox="0 0 25 28" fill="none" xmlns="http://www.w3.org/2000/svg">
<path d="M12.5 15.8242C11.9727 15.8242 11.4805 15.625 10.8242 15.25L1.76562 10C0.734375 9.39062 0.253906 8.86328 0.253906 8.04297C0.253906 7.22266 0.734375 6.69531 1.76562 6.08594L10.8242 0.835938C11.4805 0.460938 11.9727 0.273438 12.5 0.273438C13.0156 0.273438 13.5078 0.460938 14.1641 0.835938L23.2344 6.08594C24.2539 6.69531 24.7344 7.22266 24.7344 8.04297C24.7344 8.86328 24.2539 9.39062 23.2344 10L14.1641 15.25C13.5078 15.625 13.0156 15.8242 12.5 15.8242ZM12.5 13.0703C12.6406 13.0703 12.7695 13.0234 12.9453 12.9297L21.3477 8.16016C21.3945 8.125 21.418 8.10156 21.418 8.04297C21.418 7.99609 21.3945 7.96094 21.3477 7.9375L12.9453 3.16797C12.7695 3.0625 12.6406 3.01562 12.5 3.01562C12.3477 3.01562 12.2188 3.0625 12.043 3.16797L3.64062 7.9375C3.59375 7.96094 3.57031 7.99609 3.57031 8.04297C3.57031 8.10156 3.59375 8.125 3.64062 8.16016L12.043 12.9297C12.2188 13.0234 12.3477 13.0703 12.5 13.0703ZM12.5 21.6484C12.0078 21.6484 11.5742 21.4258 10.9766 21.0742L1.27344 15.3672C0.617188 14.9805 0.253906 14.4648 0.253906 13.8438C0.253906 13.2227 0.640625 12.7305 1.09766 12.4375L11.668 18.5664C11.9961 18.7656 12.2422 18.8828 12.5 18.8828C12.7461 18.8828 12.9922 18.7656 13.3203 18.5664L23.8906 12.4375C24.3594 12.7305 24.7461 13.2227 24.7461 13.8438C24.7461 14.4648 24.3828 14.9805 23.7148 15.3672L14.0117 21.0742C13.4141 21.4258 12.9805 21.6484 12.5 21.6484ZM12.5 27.168C12.0078 27.168 11.5742 26.9453 10.9766 26.5938L1.27344 20.8984C0.617188 20.5117 0.253906 19.9844 0.253906 19.3633C0.253906 18.7422 0.640625 18.25 1.09766 17.957L11.668 24.0977C11.9961 24.2852 12.2422 24.4023 12.5 24.4023C12.7461 24.4023 12.9922 24.2852 13.3203 24.0977L23.8906 17.957C24.3594 18.25 24.7461 18.7422 24.7461 19.3633C24.7461 19.9844 24.3711 20.5117 23.7148 20.8984L14.0117 26.5938C13.4141 26.9453 12.9805 27.168 12.5 27.168Z" fill="white"/>
</svg>
