<svg width="18" height="20" viewBox="0 0 18 20" fill="none" xmlns="http://www.w3.org/2000/svg">
<path d="M9.08398 9.98828C6.7207 9.98828 4.80664 7.91797 4.80664 5.36914C4.80664 2.85938 6.73047 0.828125 9.08398 0.828125C11.4473 0.828125 13.3516 2.83008 13.3516 5.34961C13.3516 7.9082 11.4375 9.98828 9.08398 9.98828ZM9.08398 8.29883C10.4414 8.29883 11.584 7.01953 11.584 5.34961C11.584 3.72852 10.4512 2.51758 9.08398 2.51758C7.7168 2.51758 6.57422 3.74805 6.57422 5.36914C6.57422 7.0293 7.72656 8.29883 9.08398 8.29883ZM2.99023 19.0703C1.30078 19.0703 0.490234 18.5332 0.490234 17.3906C0.490234 14.7246 3.83008 11.1309 9.07422 11.1309C14.3184 11.1309 17.6582 14.7246 17.6582 17.3906C17.6582 18.5332 16.8477 19.0703 15.168 19.0703H2.99023ZM2.6582 17.3809H15.4902C15.7148 17.3809 15.8125 17.3125 15.8125 17.127C15.8125 15.6328 13.3906 12.8203 9.07422 12.8203C4.75781 12.8203 2.3457 15.6328 2.3457 17.127C2.3457 17.3125 2.43359 17.3809 2.6582 17.3809Z" fill="#CCD1D9"/>
</svg>
