<svg width="7" height="11" viewBox="0 0 7 11" fill="none" xmlns="http://www.w3.org/2000/svg">
<path d="M1.20996 10.2109C0.467773 10.2109 0.0820312 9.81543 0.0820312 9.01465V5.55273C0.0820312 4.84961 0.389648 4.4541 0.975586 4.37598V3.21875C0.975586 1.41699 2.16699 0.484375 3.5 0.484375C4.83301 0.484375 6.02441 1.41699 6.02441 3.21875V4.38086C6.61035 4.45898 6.91309 4.84961 6.91309 5.55273V9.01465C6.91309 9.81543 6.52734 10.2109 5.78516 10.2109H1.20996ZM1.88867 3.13086V4.36133H5.11133V3.13086C5.11133 1.9834 4.36914 1.3584 3.5 1.3584C2.62598 1.3584 1.88867 1.9834 1.88867 3.13086Z" fill="white"/>
</svg>
