<svg width="24" height="14" viewBox="0 0 24 14" fill="none" xmlns="http://www.w3.org/2000/svg">
<mask id="mask0_234_1067" style="mask-type:luminance" maskUnits="userSpaceOnUse" x="0" y="0" width="24" height="14">
<path d="M23.5814 0H0.901367V14H23.5814V0Z" fill="white"/>
</mask>
<g mask="url(#mask0_234_1067)">
<path d="M15.6196 1.52698H8.91895V12.4711H15.6196V1.52698Z" fill="#FF5F00"/>
<path d="M9.60881 7.00005C9.60799 5.9462 9.84686 4.90602 10.3074 3.95815C10.7679 3.01028 11.4381 2.17959 12.2671 1.52894C11.2403 0.722034 10.0073 0.220273 8.70884 0.0809937C7.41046 -0.0582859 6.09906 0.170538 4.92455 0.741313C3.75004 1.31209 2.7598 2.20178 2.06701 3.30871C1.37422 4.41565 1.00684 5.69516 1.00684 7.00104C1.00684 8.30689 1.37422 9.58637 2.06701 10.6933C2.7598 11.8002 3.75004 12.6899 4.92455 13.2607C6.09906 13.8315 7.41046 14.0603 8.70884 13.9211C10.0073 13.7818 11.2403 13.28 12.2671 12.4731C11.4378 11.8222 10.7675 10.9913 10.307 10.043C9.84646 9.0948 9.6077 8.05419 9.60881 7.00005Z" fill="#EB001B"/>
<path d="M22.8634 11.3133V11.089H22.96V11.0426H22.73V11.089H22.8209V11.3133H22.8634ZM23.31 11.3133V11.0426H23.2404L23.1592 11.2359L23.078 11.0426H23.0084V11.3133H23.0586V11.1084L23.1341 11.2842H23.1863L23.2616 11.1084V11.3133H23.31Z" fill="#F79E1B"/>
<path d="M23.5288 6.99994C23.5288 8.30591 23.1613 9.58551 22.4684 10.6925C21.7754 11.7994 20.7851 12.6891 19.6104 13.2598C18.4357 13.8305 17.1242 14.0592 15.8257 13.9197C14.5272 13.7802 13.2942 13.2782 12.2676 12.4711C13.0962 11.8198 13.7662 10.9889 14.2268 10.041C14.6875 9.09306 14.9268 8.05292 14.9268 6.99901C14.9268 5.94504 14.6875 4.90489 14.2268 3.95697C13.7662 3.00905 13.0962 2.17813 12.2676 1.5269C13.2942 0.719752 14.5272 0.217743 15.8257 0.0782641C17.1242 -0.0612156 18.4357 0.167461 19.6104 0.738156C20.7851 1.30885 21.7754 2.19852 22.4684 3.3055C23.1613 4.41247 23.5288 5.69207 23.5288 6.99802V6.99994Z" fill="#F79E1B"/>
</g>
</svg>
