<svg width="24" height="7" viewBox="0 0 24 7" fill="none" xmlns="http://www.w3.org/2000/svg">
<path fill-rule="evenodd" clip-rule="evenodd" d="M2.31262 0.295307C2.52703 0.294024 3.16426 0.236632 3.43417 1.1476C3.61599 1.76123 3.90561 2.7664 4.30305 4.16309H4.46491C4.89112 2.6906 5.1839 1.68544 5.34326 1.1476C5.61599 0.227143 6.29781 0.295325 6.57053 0.295325L8.67469 0.295327V6.84076H6.53008V2.98343H6.38627L5.19075 6.84076H3.5772L2.38169 2.98057H2.23787V6.84076H0.0932617V0.295327L2.31262 0.295307ZM11.7543 0.295327V4.15554H11.9254L13.3796 0.981313C13.6619 0.349634 14.2636 0.295327 14.2636 0.295327H16.3389V6.84078H14.1495V2.98057H13.9784L12.5527 6.15479C12.2704 6.78361 11.6403 6.84078 11.6403 6.84078H9.56491V0.295327H11.7543ZM23.9065 3.40577C23.6011 4.2712 22.642 4.89099 21.5802 4.89099H19.2842V6.84078H17.2022V3.40577H23.9065Z" fill="#0F754E"/>
</svg>
