<svg width="24" height="31" viewBox="0 0 24 31" fill="none" xmlns="http://www.w3.org/2000/svg">
<path d="M3.13673 30.127C1.36134 30.127 0.464853 29.2305 0.482431 27.4902V3.14453C0.482431 1.4043 1.37892 0.507812 3.13673 0.507812H7.3379C9.09571 0.525391 9.9922 1.36914 9.9922 3.14453V27.4902C9.9922 29.2305 9.09571 30.127 7.3379 30.127H3.13673ZM16.8301 30.127C15.0547 30.127 14.1934 29.2305 14.1934 27.4902V3.14453C14.1934 1.4043 15.0899 0.507812 16.8301 0.507812H21.0313C22.7891 0.507812 23.6856 1.36914 23.6856 3.14453V27.4902C23.6856 29.2305 22.7891 30.127 21.0313 30.127H16.8301Z" fill="#F5F7FA"/>
</svg>
