<svg width="22" height="16" viewBox="0 0 22 16" fill="none" xmlns="http://www.w3.org/2000/svg">
<path fill-rule="evenodd" clip-rule="evenodd" d="M13.3536 1.85658C13.0728 1.9886 12.8242 2.28835 12.8242 2.75339V4.27277C12.8242 4.7637 12.4138 5.16168 11.9075 5.16168H9.0842C5.31447 5.16168 2.00125 8.3817 1.83951 12.5624C3.65273 10.8499 6.01722 9.8666 8.57999 9.8666H11.9075C12.4138 9.8666 12.8242 10.2645 12.8242 10.7555V13.0852C12.8242 13.5502 13.0728 13.85 13.3536 13.982C13.6343 14.114 13.9493 14.0878 14.203 13.8564C14.2029 13.8564 14.203 13.8563 14.203 13.8564L19.8316 8.707C20.3062 8.2163 20.2399 7.4913 19.8627 7.1598L19.8493 7.1478L14.2032 1.98242C14.2031 1.98229 14.2033 1.98254 14.2032 1.98242C13.9496 1.75109 13.6342 1.72464 13.3536 1.85658ZM12.5537 0.256917C13.4577 -0.168173 14.6046 -0.0930724 15.4601 0.688188L21.1014 5.84912C22.3265 6.9338 22.2604 8.8271 21.1378 9.9547C21.1279 9.9647 21.1178 9.9744 21.1074 9.9839L15.4607 15.1498C14.6052 15.9311 13.4577 16.0067 12.5537 15.5817C11.6497 15.1566 10.9908 14.2408 10.9908 13.0852V11.6444H8.57999C5.80046 11.6444 3.26195 13.0807 1.69999 15.5727C1.4865 15.9133 1.06528 16.0745 0.66945 15.967C0.27363 15.8595 0 15.5096 0 15.111V12.8826C0 7.6965 4.07622 3.38387 9.0842 3.38387H10.9908V2.75339C10.9908 1.59776 11.6497 0.682007 12.5537 0.256917Z" fill="white"/>
</svg>
