<svg width="28" height="27" viewBox="0 0 28 27" fill="none" xmlns="http://www.w3.org/2000/svg">
<path d="M5.78516 26.0938C5.1875 25.6484 5.07031 24.8984 5.39844 23.9258L7.77734 16.8594L1.70703 12.5117C0.875 11.9141 0.5 11.2344 0.746094 10.5195C0.992188 9.81641 1.67188 9.46484 2.69141 9.47656L10.1445 9.53516L12.4062 2.42188C12.7227 1.42578 13.25 0.898438 14 0.898438C14.75 0.898438 15.2656 1.42578 15.582 2.42188L17.8555 9.53516L25.2852 9.47656C26.3281 9.46484 26.9961 9.81641 27.2422 10.5195C27.4766 11.2344 27.125 11.9141 26.2812 12.5117L20.2109 16.8594L22.5898 23.9258C22.918 24.8984 22.8008 25.6484 22.2031 26.0938C21.5938 26.5625 20.8555 26.4102 20.0117 25.8008L14 21.3828L7.97656 25.8008C7.13281 26.4102 6.39453 26.5625 5.78516 26.0938ZM8.12891 22.8945C8.14062 22.918 8.17578 22.8945 8.22266 22.8711L13.2383 18.9688C13.7891 18.5352 14.1992 18.5352 14.75 18.9688L19.7656 22.8711C19.8125 22.8945 19.8477 22.918 19.8594 22.8945C19.8828 22.8711 19.8828 22.8594 19.8594 22.7891L17.7266 16.8125C17.4922 16.1562 17.5508 15.8047 18.1602 15.3945L23.4219 11.8203C23.4688 11.7852 23.4805 11.7734 23.4805 11.7383C23.4688 11.7148 23.4336 11.7031 23.375 11.7031L17.0352 11.8789C16.332 11.9023 16.0156 11.7148 15.8164 11.0352L14.0586 4.94141C14.0352 4.87109 14.0234 4.85938 14 4.85938C13.9648 4.85938 13.9531 4.87109 13.9297 4.94141L12.1719 11.0352C11.9727 11.7148 11.6562 11.9023 10.9648 11.8789L4.61328 11.7031C4.55469 11.7031 4.53125 11.7148 4.51953 11.7383C4.50781 11.7734 4.53125 11.7969 4.57812 11.8203L9.82812 15.3945C10.4492 15.8047 10.4961 16.1562 10.2734 16.8125L8.12891 22.7891C8.10547 22.8594 8.10547 22.8711 8.12891 22.8945Z" fill="white"/>
</svg>
