<svg width="38" height="12" viewBox="0 0 38 12" fill="none" xmlns="http://www.w3.org/2000/svg">
<path d="M18.6899 0.300982L16.244 11.7347H13.2858L15.7317 0.300982H18.6899ZM31.134 7.6838L32.6917 3.39006L33.5864 7.6838H31.134ZM34.436 11.7347H37.171L34.7815 0.300982H32.2581C31.6889 0.300982 31.2107 0.631253 30.9984 1.13917L26.5598 11.7347H29.6662L30.2823 10.0268H34.0775L34.436 11.7347ZM26.714 8.00172C26.7265 4.98462 22.5423 4.81726 22.5697 3.46906C22.5797 3.05932 22.97 2.62293 23.8246 2.51144C24.2479 2.45674 25.4173 2.41303 26.7419 3.02332L27.2601 0.597362C26.5484 0.340017 25.6325 0.0922546 24.4933 0.0922546C21.569 0.0922546 19.5119 1.64544 19.4955 3.87133C19.4764 5.51777 20.9648 6.43541 22.0842 6.9838C23.2372 7.5438 23.6238 7.90377 23.6185 8.40422C23.6102 9.1713 22.6977 9.51092 21.8493 9.52357C20.3615 9.5472 19.4991 9.12154 18.8111 8.80106L18.2742 11.3075C18.9664 11.6246 20.2419 11.9002 21.563 11.9142C24.6717 11.9142 26.7049 10.3788 26.714 8.00172ZM14.4627 0.300982L9.67014 11.7347H6.54318L4.18456 2.60961C4.04175 2.04887 3.9174 1.84248 3.48218 1.60547C2.77091 1.2191 1.59639 0.857744 0.563965 0.63289L0.633621 0.300982H5.66762C6.30833 0.300982 6.88519 0.727554 7.03172 1.46617L8.27801 8.08303L11.3547 0.300982H14.4627Z" fill="#0D63B0"/>
</svg>
