<svg width="21" height="18" viewBox="0 0 21 18" fill="none" xmlns="http://www.w3.org/2000/svg">
<path d="M18 5.7H15.2C13.4 5.7 11.9 7.2 11.9 9V9.1C11.9 10.9 13.4 12.4 15.2 12.4H17V13C17 14.2 16.1 15.1 15.1 15.1H4.9C3.9 15 3 14.1 3 12.9V5.1C3 3.9 3.9 3 4.9 3H15.1C15.8 3 16.5 3.4 16.8 4.2C17 4.7 17.6 4.9 18.1 4.7C18.6 4.5 18.8 3.9 18.6 3.4C18 1.9 16.6 1 15.1 1H4.9C2.8 1 1 2.8 1 5.1V12.9C1 15.2 2.8 17 4.9 17H15.1C17.3 17 19 15.2 19 12.9V12.1C19.9 11.7 20.5 10.8 20.5 9.8V8.2C20.5 6.8 19.4 5.7 18 5.7ZM13.9 9.1V8.9C13.9 8.2 14.5 7.6 15.2 7.6H18C18.3 7.6 18.5 7.8 18.5 8.1V9.8C18.5 10.1 18.3 10.3 18 10.3H15.2C14.5 10.3 13.9 9.8 13.9 9.1Z" fill="white" stroke="#181818"/>
</svg>
